# xmcd CD database file
#
# Track frame offsets:
#	150
#	38990
#	66460
#	86181
#	103200
#	137602
#	190503
#	208542
#	229125
#	241044
#	260321
#
# Disc length: 4070 seconds
#
# Revision: 0
# Processed by: cddbd v1.5.1PL0 Copyright (c) Steve Scherf et al.
# Submitted via: CDex 1.51
#
DISCID=970fe40b
DTITLE=Point (Pier 1 Imports) - Stress Release
DYEAR=1999
DGENRE=New Age
TTITLE0=Spirit Flow
TTITLE1=Wind of Change
TTITLE2=Semblance of Being
TTITLE3=Inner Light
TTITLE4=Cycle of Life
TTITLE5=A Wish Away
TTITLE6=A Dream's Harmony
TTITLE7=Maiden Flight
TTITLE8=In Peace
TTITLE9=Freedom of Movement
TTITLE10=Star Dance
EXTD=YEAR: 1999
EXTT0=
EXTT1=
EXTT2=
EXTT3=
EXTT4=
EXTT5=
EXTT6=
EXTT7=
EXTT8=
EXTT9=
EXTT10=
PLAYORDER=
